<svg xmlns="http://www.w3.org/2000/svg" viewBox="0 0 207.75 36"><path d="M23.95,3.85a5.09617,5.09617,0,0,1-1.6-3.2A17.94218,17.94218,0,0,0,17.45,0a17.94218,17.94218,0,0,0-4.9.65,5.26455,5.26455,0,0,1-1.6,3.2A5.22658,5.22658,0,0,1,7.05,5.5,5.73525,5.73525,0,0,1,4.9,5.1a.327.327,0,0,0-.15.15A17.444,17.444,0,0,0,0,13.5q.3.25.6.55A5.38921,5.38921,0,0,1,2.25,18,5.38921,5.38921,0,0,1,.6,21.95q-.3.3-.6.55a17.45143,17.45143,0,0,0,4.75,8.2.78332.78332,0,0,0,.15.2,5.735,5.735,0,0,1,2.15-.4,5.22658,5.22658,0,0,1,3.9,1.65,5.09615,5.09615,0,0,1,1.6,3.2,18.79423,18.79423,0,0,0,9.8,0,5.20146,5.20146,0,0,1,1.55-3.2,5.603,5.603,0,0,1,6.05-1.25l.2-.2a17.45134,17.45134,0,0,0,4.75-8.2,3.18315,3.18315,0,0,1-.6-.55,5.553,5.553,0,0,1,0-7.9,3.18315,3.18315,0,0,1,.6-.55,17.444,17.444,0,0,0-4.75-8.25L30,5.1a5.73525,5.73525,0,0,1-2.15.4,5.22658,5.22658,0,0,1-3.9-1.65m-2.7,2.9a3.64712,3.64712,0,0,1-.4,3,3.64316,3.64316,0,0,1-2.4,1.85,3.95818,3.95818,0,0,1-3-.4,3.84091,3.84091,0,0,1-1.8-2.4,3.64712,3.64712,0,0,1,.4-3,3.64313,3.64313,0,0,1,2.4-1.85,3.68043,3.68043,0,0,1,3,.4,3.67549,3.67549,0,0,1,1.8,2.4m7.05,2.7a3.84086,3.84086,0,0,1,1.8,2.4,3.64712,3.64712,0,0,1-.4,3,3.64319,3.64319,0,0,1-2.4,1.85,3.89316,3.89316,0,0,1-4.8-2.8,3.79624,3.79624,0,0,1,.35-3A3.981,3.981,0,0,1,28.3,9.45m-3.05,9.8a3.91853,3.91853,0,0,1,3,.4,3.99064,3.99064,0,0,1-.95,7.3,3.91857,3.91857,0,0,1-3-.4,3.981,3.981,0,0,1-1.45-5.45,3.855,3.855,0,0,1,2.4-1.85M10.6,9.45a3.8035,3.8035,0,0,1,1.85,2.4,3.77938,3.77938,0,0,1-.4,3.05,3.855,3.855,0,0,1-2.4,1.85,3.95818,3.95818,0,0,1-3-.4,3.99064,3.99064,0,0,1,.95-7.3,3.91857,3.91857,0,0,1,3,.4M4.8,24.15a3.64712,3.64712,0,0,1,.4-3A3.64316,3.64316,0,0,1,7.6,19.3a3.68043,3.68043,0,0,1,3,.4,3.855,3.855,0,0,1,1.85,2.4,3.91859,3.91859,0,0,1-.4,3,3.80358,3.80358,0,0,1-2.4,1.85,3.64715,3.64715,0,0,1-3-.4,3.64316,3.64316,0,0,1-1.85-2.4M14.35,18a3.11131,3.11131,0,0,1,5.3-2.2,3.11131,3.11131,0,0,1-4.4,4.4,2.9926,2.9926,0,0,1-.9-2.2m-.7,11.25a3.97531,3.97531,0,0,1,2.8-4.85,3.95813,3.95813,0,0,1,3,.4,3.84086,3.84086,0,0,1,1.8,2.4,3.97531,3.97531,0,0,1-2.8,4.85,3.89316,3.89316,0,0,1-4.8-2.8M54.4,8.4a15.47809,15.47809,0,0,0-3.3-.3,27.71548,27.71548,0,0,0-2.95.15,16.11608,16.11608,0,0,0-2.25.3v19.2q.7.1,1.8.15,1.1.1,2.6.1a18.67565,18.67565,0,0,0,4.45-.45,6.51433,6.51433,0,0,0,2.8-1.4,4.56976,4.56976,0,0,0,1.35-1.7,5.56543,5.56543,0,0,0,.55-2.3,5.21218,5.21218,0,0,0-.6-2.35,4.48077,4.48077,0,0,0-1.45-1.6,5.51447,5.51447,0,0,0-1.9-.9v-.05a4.91809,4.91809,0,0,0,2.4-1.75,3.98062,3.98062,0,0,0,.85-2.5,4.7644,4.7644,0,0,0-.55-2.15,4.04814,4.04814,0,0,0-1.5-1.5,6.54725,6.54725,0,0,0-2.3-.95m-2.9,2.35a4.64866,4.64866,0,0,1,2.65.65,2.37086,2.37086,0,0,1,1,2,2.711,2.711,0,0,1-1,2.05,5.00368,5.00368,0,0,1-2.9.8h-1.8V10.9q.25-.05.75-.1t1.3-.05m1.95,8.4a3.63527,3.63527,0,0,1,1.6,1.05,2.66816,2.66816,0,0,1,.6,1.8,2.90324,2.90324,0,0,1-.6,1.95A3.6641,3.6641,0,0,1,53.5,25a7.44834,7.44834,0,0,1-2.15.3h-1.1q-.45-.05-.8-.1V18.85H51.2a7.82216,7.82216,0,0,1,2.25.3m12.2,5.3q.05-.95.1-1.85t.05-1.8q.05-.95.05-2.05V13.7h-3.4V27.8H66.7q.9-1.75,1.85-3.55.9-1.8,1.75-3.4l.95-1.9q.4-.95.9-2.15h.1q-.05,1.3-.1,2.2-.05.95-.1,1.8v7h3.4V13.7H71.1l-3.45,6.6q-.55,1.05-.95,2-.45.95-1,2.15h-.05M90,32.3h2.75l.15-7-1.55-.1V13.7H80.95v3.55a17.07552,17.07552,0,0,1-.2,2.6,12.40018,12.40018,0,0,1-.55,2.45,5.88388,5.88388,0,0,1-.6,1.5,13.819,13.819,0,0,1-.75,1.4l-1.3.1.1,7H80.4l.15-4.5h9.3L90,32.3M84.05,16.35H87.9v8.8H82.4a6.72312,6.72312,0,0,0,.6-1.2,5.44435,5.44435,0,0,0,.45-1.3,15.37967,15.37967,0,0,0,.45-2.15,16.6363,16.6363,0,0,0,.15-2.25v-1.9m22.25-.7A5.54709,5.54709,0,0,0,104.45,14a6.82815,6.82815,0,0,0-6.7.5,6.8553,6.8553,0,0,0-2.3,2.75,8.57928,8.57928,0,0,0-.8,3.7,8.411,8.411,0,0,0,.9,3.8,6.10809,6.10809,0,0,0,2.5,2.45,8.63375,8.63375,0,0,0,3.9.9,22.14692,22.14692,0,0,0,2.75-.25,11.49353,11.49353,0,0,0,2.2-.65l-.55-2.45a8.95355,8.95355,0,0,1-1.75.45,10.48544,10.48544,0,0,1-2.15.2,5.735,5.735,0,0,1-2.15-.4,3.22756,3.22756,0,0,1-1.55-1.2,3.57232,3.57232,0,0,1-.65-2.05h9.45a3.42745,3.42745,0,0,0,.05-.65,6.13535,6.13535,0,0,0,.05-.85,9.86251,9.86251,0,0,0-.3-2.4,6.09718,6.09718,0,0,0-1.05-2.2m-4.95.15a2.98655,2.98655,0,0,1,1.85.6,2.81629,2.81629,0,0,1,.85,1.35,5.04153,5.04153,0,0,1,.25,1.5H98.1a4.63674,4.63674,0,0,1,.4-1.55,5.08864,5.08864,0,0,1,1.05-1.35,3.29126,3.29126,0,0,1,1.8-.55m25.35,2.7a4.84268,4.84268,0,0,0,1.25,3.65,4.77565,4.77565,0,0,0,3.45,1.2,6.92914,6.92914,0,0,0,2-.3,5.02429,5.02429,0,0,0,1.65-.7h.1V27.8h3.55V13.7h-3.55V20a5.63073,5.63073,0,0,1-1.1.55,6.03854,6.03854,0,0,1-1.35.25,2.40247,2.40247,0,0,1-1.9-.75,2.95849,2.95849,0,0,1-.55-1.95V13.7H126.7v4.8m-2.75,2.1a8.30241,8.30241,0,0,0-.9-3.75,6.0286,6.0286,0,0,0-2.45-2.55,7.5075,7.5075,0,0,0-3.65-.95,8.011,8.011,0,0,0-3.8.95,6.181,6.181,0,0,0-2.6,2.55,8.64213,8.64213,0,0,0-.95,4,8.42649,8.42649,0,0,0,.95,3.9,6.91333,6.91333,0,0,0,2.5,2.5,8.051,8.051,0,0,0,7.1.05,6.13962,6.13962,0,0,0,2.7-2.45,8.09551,8.09551,0,0,0,1.1-4.25m-7.1-4.6a2.74316,2.74316,0,0,1,1.95.7,4.111,4.111,0,0,1,1.1,1.8,6.91093,6.91093,0,0,1,.35,2.2,6.55468,6.55468,0,0,1-.45,2.5,3.59039,3.59039,0,0,1-1.2,1.7,3.03309,3.03309,0,0,1-1.8.65,3.10317,3.10317,0,0,1-1.85-.65,3.95124,3.95124,0,0,1-1.2-1.7,6.18023,6.18023,0,0,1-.45-2.45,7.53976,7.53976,0,0,1,.35-2.3,3.92861,3.92861,0,0,1,1.15-1.75,2.99949,2.99949,0,0,1,2.05-.7m30.2-.1a3.54622,3.54622,0,0,1,1.85.4,2.22508,2.22508,0,0,1,.8,1,3.07149,3.07149,0,0,1,.2,1.05v.25a11.48465,11.48465,0,0,0-6.15,1.3,4.50733,4.50733,0,0,0-2.25,4,4.02243,4.02243,0,0,0,.55,2.05,3.93346,3.93346,0,0,0,1.5,1.55,4.58042,4.58042,0,0,0,2.4.6,5.64076,5.64076,0,0,0,2.45-.5,5.21433,5.21433,0,0,0,1.75-1.35h.1l.2,1.55h3.2q-.1-.65-.15-1.55-.05-.85-.05-1.85V19.3a7.00135,7.00135,0,0,0-.5-2.9,4.18748,4.18748,0,0,0-1.8-2.15,6.43649,6.43649,0,0,0-3.5-.9,13.07511,13.07511,0,0,0-3,.4,7.83469,7.83469,0,0,0-2.1.85l.7,2.35A4.95889,4.95889,0,0,1,145,16.2a6.77293,6.77293,0,0,1,2.05-.3m-2,7.65a1.99749,1.99749,0,0,1,.75-1.65,3.73091,3.73091,0,0,1,1.8-.8,9.21657,9.21657,0,0,1,2.4-.2v1.95a2.15046,2.15046,0,0,1-.05.4.80576.80576,0,0,1-.1.35,2.72509,2.72509,0,0,1-.95,1.35,2.7919,2.7919,0,0,1-1.8.6,2.0724,2.0724,0,0,1-1.45-.5,1.841,1.841,0,0,1-.6-1.5m18.45-7.1h4.25V13.7H155.7v2.75h4.25V27.8h3.55V16.45m25.3-5.1a4.42962,4.42962,0,0,0-1.25-1.65,5.82612,5.82612,0,0,0-2.45-1.2,14.12,14.12,0,0,0-3.6-.4,29.15376,29.15376,0,0,0-3,.15,19.54576,19.54576,0,0,0-2.4.3V27.8h3.55V19.75h1.8a3.41429,3.41429,0,0,1,2.3.8,5.03825,5.03825,0,0,1,1.2,2.65q.4,1.8.75,3a15.96949,15.96949,0,0,0,.55,1.6h3.7a8.57917,8.57917,0,0,1-.45-1.2q-.25-.8-.55-1.95-.25-1.05-.55-2.3a7.18061,7.18061,0,0,0-1.05-2.4,3.59061,3.59061,0,0,0-1.65-1.35v-.1a6.326,6.326,0,0,0,1.7-1,4.95151,4.95151,0,0,0,1.8-3.9,6.01339,6.01339,0,0,0-.4-2.25m-3.1,2.6a3.16929,3.16929,0,0,1-1.05,2.35,4.48612,4.48612,0,0,1-2.9.85h-2.1V11a3.08791,3.08791,0,0,1,.8-.15q.55-.05,1.4-.05a4.72187,4.72187,0,0,1,2.8.75,3.01812,3.01812,0,0,1,1.05,2.4m18.45-5.7v11.4a7.064,7.064,0,0,1-1.05,4.25,3.71749,3.71749,0,0,1-3.05,1.35,3.47,3.47,0,0,1-2.9-1.35,6.82,6.82,0,0,1-1.1-4.25V8.25h-3.6v11.2a12.10268,12.10268,0,0,0,.95,4.95,5.88712,5.88712,0,0,0,2.6,2.85,7.77255,7.77255,0,0,0,3.95.85,8.84987,8.84987,0,0,0,4.1-.9,6.39686,6.39686,0,0,0,2.7-2.85,10.81009,10.81009,0,0,0,1-4.95V8.25Z" transform="translate(0 0.00002)" style="fill:#fff"/></svg>