<svg xmlns="http://www.w3.org/2000/svg" width="34.089" height="34.1" viewBox="0 0 34.089 34.1">
    <defs>
        <style>
            .cls-1{fill:#fff}
        </style>
    </defs>
    <path id="videochat-ruletka" d="M1442.907 1300.636a5.1 5.1 0 0 1 1.591-3.761 4.9 4.9 0 0 1 .591-.5 16.591 16.591 0 0 0-4.625-7.818 1.887 1.887 0 0 1-.159-.148 5.71 5.71 0 0 1-2.057.364 5.307 5.307 0 0 1-3.863-1.557 5.023 5.023 0 0 1-1.545-3.045 19.225 19.225 0 0 0-4.784-.579 18.706 18.706 0 0 0-4.784.591 4.923 4.923 0 0 1-1.557 3.045 5.308 5.308 0 0 1-3.852 1.557 5.576 5.576 0 0 1-2.068-.375 2.014 2.014 0 0 1-.17.148 16.294 16.294 0 0 0-4.625 7.84 5.718 5.718 0 0 1 .579.489 5.215 5.215 0 0 1 0 7.5 4.8 4.8 0 0 1-.579.5 16.228 16.228 0 0 0 4.613 7.795l.17.171a5.864 5.864 0 0 1 2.068-.375 5.3 5.3 0 0 1 3.852 1.545 4.948 4.948 0 0 1 1.557 3.079 19.566 19.566 0 0 0 9.545 0 5.079 5.079 0 0 1 1.545-3.079 5.325 5.325 0 0 1 3.864-1.545 5.842 5.842 0 0 1 2.057.364c.057-.057.114-.1.17-.17a16.146 16.146 0 0 0 4.625-7.806 4.9 4.9 0 0 1-.591-.5 5.037 5.037 0 0 1-1.568-3.73zm-20.135 6.738a3.664 3.664 0 0 1-2.341 1.739 3.821 3.821 0 0 1-2.932-.364 3.62 3.62 0 0 1-1.8-2.284 3.467 3.467 0 0 1 .386-2.852 3.725 3.725 0 0 1 2.341-1.761 3.824 3.824 0 0 1 2.932.375 3.712 3.712 0 0 1 1.409 5.147zm.011-9.681a3.664 3.664 0 0 1-2.341 1.739 3.821 3.821 0 0 1-2.932-.364 3.621 3.621 0 0 1-1.8-2.284 3.466 3.466 0 0 1 .386-2.852 3.617 3.617 0 0 1 2.341-1.739 3.782 3.782 0 0 1 2.932.375 3.65 3.65 0 0 1 1.8 2.273 3.492 3.492 0 0 1-.386 2.852zm8.6 14.522a3.674 3.674 0 0 1-2.341 1.739 3.775 3.775 0 0 1-2.932-.375 3.62 3.62 0 0 1-1.8-2.284 3.466 3.466 0 0 1 .386-2.852 3.617 3.617 0 0 1 2.341-1.739 3.824 3.824 0 0 1 2.932.375 3.563 3.563 0 0 1 1.8 2.272 3.481 3.481 0 0 1-.384 2.864zm-6.375-11.579a2.817 2.817 0 0 1 .886-2.091 3.1 3.1 0 0 1 4.3 0 2.909 2.909 0 0 1 0 4.182 3.1 3.1 0 0 1-4.3 0 2.818 2.818 0 0 1-.884-2.091zm6.375-7.806a3.636 3.636 0 0 1-2.341 1.739 3.821 3.821 0 0 1-2.932-.364 3.62 3.62 0 0 1-1.8-2.284 3.467 3.467 0 0 1 .386-2.852 3.725 3.725 0 0 1 2.341-1.761 3.824 3.824 0 0 1 2.932.375 3.649 3.649 0 0 1 1.8 2.273 3.5 3.5 0 0 1-.384 2.874zm8.624 14.533a3.664 3.664 0 0 1-2.341 1.739 3.821 3.821 0 0 1-2.932-.364 3.62 3.62 0 0 1-1.8-2.284 3.466 3.466 0 0 1 .386-2.852 3.617 3.617 0 0 1 2.341-1.739 3.824 3.824 0 0 1 2.932.375 3.693 3.693 0 0 1 1.409 5.125zm.034-9.681a3.663 3.663 0 0 1-2.341 1.739 3.822 3.822 0 0 1-2.932-.364 3.62 3.62 0 0 1-1.8-2.284 3.466 3.466 0 0 1 .386-2.852 3.617 3.617 0 0 1 2.341-1.739 3.824 3.824 0 0 1 2.932.375 3.686 3.686 0 0 1 1.8 2.272 3.641 3.641 0 0 1-.384 2.853z" class="cls-1" transform="translate(-1411 -1283.592)"/>
</svg>
