<svg xmlns="http://www.w3.org/2000/svg" width="494.648" height="316" viewBox="0 0 494.648 316">
    <defs>
        <style>
            .cls-1{fill:#fff2f3}.cls-2{fill:#eb9fa4}.cls-3{fill:#446ca2}.cls-4{fill:#f4cacd}.cls-5{fill:#184076}.cls-6{fill:#f2babe}.cls-7{fill:#fff}.cls-8{fill:#ffc2ba}
        </style>
    </defs>
    <g id="videochat-chatruletka-illustration" transform="translate(-641.164 -1400.388)">
        <g id="Group_243" data-name="Group 243">
            <circle id="Ellipse_13" cx="74.23" cy="74.23" r="74.23" class="cls-1" data-name="Ellipse 13" transform="rotate(-45 2174.982 -5.836)"/>
        </g>
        <g id="Group_244" data-name="Group 244">
            <circle id="Ellipse_14" cx="74.23" cy="74.23" r="74.23" class="cls-1" data-name="Ellipse 14" transform="translate(987.352 1470.54)"/>
        </g>
        <g id="Group_245" data-name="Group 245">
            <path id="Path_247" d="M925.31 1698.2h-.286c-1.209 0-2.431-.017-3.632-.05a.326.326 0 0 1-.317-.335.344.344 0 0 1 .335-.317c1.2.034 2.411.05 3.614.05h.286a.326.326 0 0 1 0 .652zm3.909-.066a.326.326 0 0 1-.01-.652c1.29-.041 2.6-.1 3.9-.182a.326.326 0 1 1 .04.65c-1.3.081-2.619.142-3.916.184zm-11.725-.149h-.018c-1.3-.074-2.611-.169-3.91-.283a.325.325 0 0 1-.3-.353.332.332 0 0 1 .353-.3c1.292.114 2.6.208 3.889.282a.326.326 0 0 1-.018.651zm19.529-.333a.326.326 0 0 1-.029-.651c1.293-.119 2.6-.258 3.878-.415a.319.319 0 0 1 .363.284.327.327 0 0 1-.284.363c-1.287.158-2.6.3-3.9.418zm-27.317-.348a.246.246 0 0 1-.039 0c-1.295-.152-2.6-.326-3.885-.517a.326.326 0 1 1 .1-.644c1.277.189 2.578.362 3.867.514a.326.326 0 0 1-.038.649zm35.078-.6a.326.326 0 0 1-.049-.648c1.289-.2 2.583-.415 3.846-.648a.33.33 0 0 1 .379.261.326.326 0 0 1-.261.38c-1.269.234-2.57.453-3.865.652zm-42.813-.547a.36.36 0 0 1-.057-.005c-1.29-.232-2.585-.485-3.848-.751a.326.326 0 0 1 .135-.638c1.257.265 2.544.517 3.828.747a.326.326 0 0 1-.058.647zm50.5-.868a.326.326 0 0 1-.069-.645c1.269-.274 2.548-.57 3.8-.88a.326.326 0 1 1 .156.633c-1.258.311-2.543.609-3.818.884a.333.333 0 0 1-.066.003zm-58.153-.747a.338.338 0 0 1-.077-.009c-1.26-.306-2.537-.637-3.8-.983a.326.326 0 0 1 .173-.629c1.252.345 2.522.674 3.776.978a.326.326 0 0 1-.077.643zm65.743-1.133a.326.326 0 0 1-.088-.64c1.255-.352 2.513-.725 3.739-1.109a.326.326 0 0 1 .195.622c-1.233.386-2.5.761-3.758 1.115a.336.336 0 0 1-.085.003zm-73.282-.942a.32.32 0 0 1-.1-.015c-1.256-.387-2.515-.8-3.741-1.216a.326.326 0 0 1 .212-.617c1.219.418 2.471.825 3.721 1.211a.326.326 0 0 1-.1.637zm80.743-1.394a.326.326 0 0 1-.106-.634c1.218-.423 2.451-.872 3.664-1.335a.326.326 0 1 1 .233.609c-1.22.465-2.459.917-3.684 1.342a.331.331 0 0 1-.104.013zm-88.165-1.145a.328.328 0 0 1-.115-.021 134.58 134.58 0 0 1-3.658-1.441.326.326 0 1 1 .249-.6c1.2.495 2.427.977 3.638 1.434a.326.326 0 0 1-.114.631zm95.459-1.638a.326.326 0 0 1-.125-.627c1.2-.5 2.394-1.019 3.566-1.549a.326.326 0 0 1 .269.594 133.54 133.54 0 0 1-3.584 1.557.349.349 0 0 1-.123.02zm-102.71-1.347a.336.336 0 0 1-.133-.028 132.41 132.41 0 0 1-3.56-1.66.326.326 0 1 1 .284-.587c1.166.566 2.358 1.121 3.543 1.652a.326.326 0 0 1-.134.623zm109.814-1.867a.326.326 0 0 1-.144-.618 127.214 127.214 0 0 0 3.469-1.763.326.326 0 0 1 .3.577 131.387 131.387 0 0 1-3.486 1.771.331.331 0 0 1-.136.028zm-116.864-1.552a.328.328 0 0 1-.151-.037c-1.153-.6-2.315-1.233-3.452-1.872a.325.325 0 1 1 .319-.567c1.132.635 2.287 1.262 3.435 1.861a.326.326 0 0 1-.151.615zm123.764-2.088a.326.326 0 0 1-.161-.609c1.123-.636 2.252-1.3 3.358-1.969a.326.326 0 0 1 .338.557c-1.111.674-2.246 1.34-3.375 1.979a.322.322 0 0 1-.157.037zm-130.592-1.748a.324.324 0 0 1-.168-.047 131.213 131.213 0 0 1-3.331-2.076.326.326 0 0 1 .353-.548c1.1.706 2.212 1.4 3.314 2.065a.326.326 0 0 1-.168.606zm137.264-2.3a.326.326 0 0 1-.178-.6c1.08-.7 2.168-1.43 3.235-2.169a.326.326 0 0 1 .371.536 128.871 128.871 0 0 1-3.251 2.18.329.329 0 0 1-.174.047zm-143.845-1.941a.325.325 0 0 1-.185-.057 134.316 134.316 0 0 1-3.2-2.272.326.326 0 0 1 .385-.526 129.02 129.02 0 0 0 3.183 2.261.326.326 0 0 1-.185.594zm150.264-2.506a.326.326 0 0 1-.193-.588 130.978 130.978 0 0 0 3.1-2.36.326.326 0 1 1 .4.513c-1.02.8-2.068 1.6-3.115 2.372a.333.333 0 0 1-.189.057zm-156.575-2.121a.326.326 0 0 1-.2-.069c-1.024-.8-2.052-1.627-3.055-2.46a.326.326 0 1 1 .416-.5 137.8 137.8 0 0 0 3.04 2.447.326.326 0 0 1-.2.583zm162.719-2.7a.326.326 0 0 1-.209-.576c.995-.83 1.989-1.686 2.954-2.543a.326.326 0 0 1 .433.488c-.971.861-1.97 1.721-2.969 2.556a.324.324 0 0 1-.206.064zm-168.738-2.292a.323.323 0 0 1-.216-.081 132.186 132.186 0 0 1-2.9-2.637.326.326 0 1 1 .445-.476c.949.889 1.92 1.771 2.886 2.624a.326.326 0 0 1-.215.57zm174.584-2.9a.327.327 0 0 1-.224-.564c.942-.887 1.883-1.8 2.8-2.716a.326.326 0 0 1 .46.461 127.04 127.04 0 0 1-2.811 2.73.326.326 0 0 1-.226.083zm-180.291-2.451a.328.328 0 0 1-.23-.095c-.915-.91-1.836-1.854-2.736-2.8a.326.326 0 1 1 .473-.448c.9.946 1.813 1.885 2.723 2.791a.326.326 0 0 1-.23.557zm185.817-3.081a.326.326 0 0 1-.238-.549c.887-.942 1.772-1.911 2.631-2.88a.326.326 0 1 1 .488.433 134.06 134.06 0 0 1-2.644 2.894.325.325 0 0 1-.234.096zm-191.191-2.6a.326.326 0 0 1-.243-.109 131.04 131.04 0 0 1-2.563-2.963.326.326 0 0 1 .5-.419c.83.991 1.689 1.982 2.549 2.948a.325.325 0 0 1-.026.46.321.321 0 0 1-.214.081zm196.378-3.257a.326.326 0 0 1-.25-.535 127.42 127.42 0 0 0 2.453-3.034.326.326 0 0 1 .513.4c-.8 1.024-1.632 2.05-2.466 3.05a.325.325 0 0 1-.247.117zm-201.4-2.729a.327.327 0 0 1-.256-.124c-.8-1.019-1.6-2.065-2.38-3.111a.326.326 0 0 1 .524-.388 131 131 0 0 0 2.368 3.095.326.326 0 0 1-.256.528zm206.227-3.429a.325.325 0 0 1-.262-.519 129.657 129.657 0 0 0 2.268-3.177.326.326 0 1 1 .536.37 128.34 128.34 0 0 1-2.279 3.194.328.328 0 0 1-.26.13zm-210.879-2.846a.327.327 0 0 1-.268-.14 130.307 130.307 0 0 1-2.187-3.246.326.326 0 0 1 .546-.356c.71 1.089 1.443 2.176 2.176 3.229a.326.326 0 0 1-.081.454.331.331 0 0 1-.183.057zm215.33-3.592a.325.325 0 0 1-.273-.5c.7-1.083 1.4-2.2 2.073-3.309a.325.325 0 0 1 .557.337 127.761 127.761 0 0 1-2.083 3.326.325.325 0 0 1-.266.144zm-219.6-2.948a.323.323 0 0 1-.278-.156c-.672-1.1-1.341-2.235-1.988-3.37a.326.326 0 1 1 .567-.323c.643 1.13 1.309 2.258 1.977 3.353a.326.326 0 0 1-.108.448.32.32 0 0 1-.162.046zm223.65-3.751a.331.331 0 0 1-.16-.041.327.327 0 0 1-.123-.445c.639-1.13 1.268-2.284 1.87-3.43a.326.326 0 1 1 .577.3 129.358 129.358 0 0 1-1.88 3.448.325.325 0 0 1-.276.166zm-227.512-3.03a.327.327 0 0 1-.288-.173 129.434 129.434 0 0 1-1.779-3.482.326.326 0 1 1 .585-.287c.57 1.159 1.166 2.324 1.77 3.464a.326.326 0 0 1-.288.478zm231.157-3.9a.336.336 0 0 1-.143-.033.326.326 0 0 1-.149-.435c.57-1.171 1.128-2.362 1.659-3.54a.326.326 0 1 1 .594.268 134.36 134.36 0 0 1-1.667 3.557.327.327 0 0 1-.286.178zm-234.6-3.094a.326.326 0 0 1-.3-.191 133.514 133.514 0 0 1-1.565-3.581.326.326 0 0 1 .6-.252c.5 1.193 1.025 2.392 1.557 3.563a.325.325 0 0 1-.161.431.328.328 0 0 1-.123.025zm237.819-4.053a.318.318 0 0 1-.124-.025.326.326 0 0 1-.177-.426c.5-1.192.98-2.415 1.442-3.635a.329.329 0 0 1 .421-.189.325.325 0 0 1 .189.42 131.602 131.602 0 0 1-1.449 3.654.328.328 0 0 1-.294.196zm-240.832-3.136a.328.328 0 0 1-.3-.209c-.466-1.214-.92-2.452-1.349-3.681a.326.326 0 1 1 .615-.215c.427 1.223.879 2.455 1.343 3.662a.326.326 0 0 1-.188.421.319.319 0 0 1-.113.017zm243.612-4.2a.326.326 0 0 1-.308-.432c.425-1.237.835-2.489 1.218-3.72a.326.326 0 0 1 .623.194c-.385 1.237-.8 2.495-1.225 3.738a.326.326 0 0 1-.3.219zm-246.186-3.186a.326.326 0 0 1-.311-.228c-.389-1.233-.767-2.5-1.123-3.756a.326.326 0 0 1 .627-.177c.354 1.253.73 2.51 1.117 3.737a.324.324 0 0 1-.212.408.34.34 0 0 1-.098.016zm248.517-4.3a.335.335 0 0 1-.088-.012.326.326 0 0 1-.227-.4c.347-1.248.679-2.517.987-3.773a.326.326 0 0 1 .633.155c-.31 1.263-.643 2.539-.992 3.793a.325.325 0 0 1-.31.242zm-250.643-3.23a.325.325 0 0 1-.316-.247 127.986 127.986 0 0 1-.893-3.817.326.326 0 1 1 .637-.139c.275 1.264.574 2.543.888 3.8a.326.326 0 0 1-.237.4.356.356 0 0 1-.076.008zm252.505-4.363a.4.4 0 0 1-.068-.007.327.327 0 0 1-.251-.387c.271-1.267.525-2.554.756-3.827a.326.326 0 1 1 .642.117 133.275 133.275 0 0 1-.76 3.846.327.327 0 0 1-.316.263zm-254.171-3.277a.326.326 0 0 1-.32-.266 132.226 132.226 0 0 1-.659-3.864.326.326 0 0 1 .644-.1c.2 1.271.418 2.565.656 3.845a.326.326 0 0 1-.26.38.422.422 0 0 1-.058.01zm255.57-4.417a.266.266 0 0 1-.049 0 .325.325 0 0 1-.274-.37c.193-1.277.369-2.577.523-3.865a.326.326 0 1 1 .647.077c-.155 1.3-.332 2.6-.525 3.885a.327.327 0 0 1-.319.278zm-256.769-3.309a.327.327 0 0 1-.323-.285c-.161-1.294-.3-2.606-.425-3.9a.326.326 0 0 1 .649-.061c.121 1.285.263 2.589.423 3.877a.326.326 0 0 1-.283.364.271.271 0 0 1-.038.01zm257.7-4.454h-.029a.326.326 0 0 1-.3-.354c.116-1.292.214-2.6.29-3.889a.326.326 0 0 1 .651.038c-.077 1.3-.175 2.611-.291 3.91a.327.327 0 0 1-.318.3zm-258.432-3.33a.326.326 0 0 1-.325-.3c-.083-1.3-.147-2.615-.191-3.915a.326.326 0 0 1 .315-.337.336.336 0 0 1 .336.315c.044 1.293.108 2.6.191 3.9a.326.326 0 0 1-.3.346zm258.9-4.474h-.009a.326.326 0 0 1-.316-.336c.038-1.293.057-2.606.057-3.9v-1.135a.326.326 0 0 1 .323-.329.318.318 0 0 1 .329.324v1.14c0 1.3-.019 2.619-.058 3.919a.326.326 0 0 1-.327.326zm-259.161-3.34a.326.326 0 0 1-.326-.324v-.572q0-1.679.042-3.347a.317.317 0 0 1 .334-.318.327.327 0 0 1 .318.334q-.042 1.661-.042 3.331v.568a.326.326 0 0 1-.324.328zm259.123-5.613a.327.327 0 0 1-.326-.314c-.049-1.29-.118-2.6-.207-3.9a.327.327 0 0 1 .3-.348.322.322 0 0 1 .348.3c.088 1.3.158 2.619.207 3.916a.325.325 0 0 1-.313.338zm-258.925-2.2h-.018a.325.325 0 0 1-.307-.343c.071-1.295.163-2.611.274-3.911a.322.322 0 0 1 .352-.3.326.326 0 0 1 .3.352c-.11 1.294-.2 2.6-.273 3.891a.325.325 0 0 1-.329.313zm258.393-5.6a.325.325 0 0 1-.324-.294 130.383 130.383 0 0 0-.44-3.875.326.326 0 1 1 .646-.083c.166 1.287.315 2.6.442 3.9a.326.326 0 0 1-.292.356zm-257.729-2.192h-.038a.326.326 0 0 1-.286-.362c.15-1.3.321-2.606.508-3.886a.326.326 0 0 1 .645.094 132.932 132.932 0 0 0-.506 3.868.325.325 0 0 1-.324.289zm256.729-5.562a.324.324 0 0 1-.321-.274c-.2-1.279-.431-2.572-.674-3.842a.326.326 0 0 1 .641-.122c.244 1.276.471 2.576.676 3.861a.325.325 0 0 1-.27.373.319.319 0 0 1-.053.007zm-255.6-2.174a.359.359 0 0 1-.057-.005.325.325 0 0 1-.264-.378c.227-1.283.477-2.578.743-3.849a.32.32 0 0 1 .385-.252.326.326 0 0 1 .252.386 127.444 127.444 0 0 0-.738 3.829.326.326 0 0 1-.32.272zm254.132-5.506a.326.326 0 0 1-.318-.255 148.69 148.69 0 0 0-.9-3.794.325.325 0 1 1 .631-.16c.32 1.256.626 2.538.91 3.813a.328.328 0 0 1-.248.389.341.341 0 0 1-.074.01zm-252.534-2.148a.338.338 0 0 1-.077-.009.326.326 0 0 1-.241-.393c.3-1.256.63-2.533.975-3.8a.326.326 0 0 1 .629.172 131.927 131.927 0 0 0-.97 3.778.326.326 0 0 1-.315.255zm250.6-5.429a.327.327 0 0 1-.314-.237c-.355-1.24-.737-2.495-1.133-3.731a.326.326 0 1 1 .62-.2c.4 1.242.782 2.505 1.14 3.751a.326.326 0 0 1-.313.416zm-248.547-2.114a.356.356 0 0 1-.1-.014.327.327 0 0 1-.216-.408 130.39 130.39 0 0 1 1.207-3.743.326.326 0 1 1 .618.21 118.645 118.645 0 0 0-1.2 3.724.327.327 0 0 1-.303.234zm246.16-5.332a.326.326 0 0 1-.307-.217 130.74 130.74 0 0 0-1.358-3.656.326.326 0 0 1 .607-.237c.474 1.219.933 2.456 1.365 3.675a.326.326 0 0 1-.307.435zm-243.637-2.1a.323.323 0 0 1-.114-.021.326.326 0 0 1-.191-.419c.458-1.224.94-2.456 1.433-3.661a.326.326 0 0 1 .6.247c-.49 1.2-.97 2.424-1.426 3.642a.326.326 0 0 1-.296.219zm240.808-5.18a.328.328 0 0 1-.3-.2 127.63 127.63 0 0 0-1.572-3.556.326.326 0 0 1 .592-.272 130.634 130.634 0 0 1 1.581 3.574.326.326 0 0 1-.173.427.318.318 0 0 1-.117.034zm-237.839-2.077a.327.327 0 0 1-.3-.459 132.45 132.45 0 0 1 1.652-3.564.326.326 0 0 1 .587.283 131.098 131.098 0 0 0-1.643 3.546.325.325 0 0 1-.29.201zm234.578-5.006a.328.328 0 0 1-.292-.18 126.136 126.136 0 0 0-1.786-3.456.326.326 0 0 1 .575-.308 150.922 150.922 0 0 1 1.8 3.473.326.326 0 0 1-.146.437.318.318 0 0 1-.145.041zm-231.176-2.053a.326.326 0 0 1-.289-.476 141.94 141.94 0 0 1 1.864-3.457.326.326 0 1 1 .569.319 129.28 129.28 0 0 0-1.854 3.438.326.326 0 0 1-.284.183zm227.492-4.823a.325.325 0 0 1-.282-.164 132.108 132.108 0 0 0-1.993-3.344.326.326 0 1 1 .555-.342c.681 1.1 1.354 2.235 2 3.361a.326.326 0 0 1-.282.489zm-223.67-2.013a.321.321 0 0 1-.167-.047.325.325 0 0 1-.112-.446 129.029 129.029 0 0 1 2.069-3.336.326.326 0 0 1 .549.353c-.7 1.084-1.389 2.2-2.059 3.317a.326.326 0 0 1-.274.166zm219.576-4.633a.329.329 0 0 1-.273-.146 134.473 134.473 0 0 0-2.19-3.221.326.326 0 1 1 .533-.374 125.564 125.564 0 0 1 2.2 3.236.325.325 0 0 1-.272.505zm-215.349-1.957a.327.327 0 0 1-.269-.51c.738-1.077 1.5-2.155 2.265-3.2a.326.326 0 0 1 .527.384 130.205 130.205 0 0 0-2.254 3.188.326.326 0 0 1-.263.145zm210.86-4.433a.327.327 0 0 1-.261-.131 132.891 132.891 0 0 0-2.381-3.085.326.326 0 1 1 .51-.406c.811 1.02 1.617 2.063 2.393 3.1a.327.327 0 0 1-.066.457.322.322 0 0 1-.189.072zm-206.246-1.888a.326.326 0 0 1-.257-.526c.8-1.027 1.623-2.057 2.453-3.061a.326.326 0 1 1 .5.415c-.825 1-1.646 2.024-2.44 3.045a.328.328 0 0 1-.25.134zM1024 1484.9a.324.324 0 0 1-.249-.115c-.834-.985-1.7-1.973-2.563-2.938a.326.326 0 1 1 .485-.435c.87.969 1.737 1.962 2.575 2.952a.325.325 0 0 1-.248.536zm-196.4-1.806a.325.325 0 0 1-.245-.541c.857-.975 1.742-1.953 2.631-2.906a.326.326 0 1 1 .477.445c-.885.948-1.766 1.921-2.618 2.892a.327.327 0 0 1-.245.11zm191.17-4.005a.326.326 0 0 1-.236-.1 132.779 132.779 0 0 0-2.735-2.78.325.325 0 1 1 .457-.463c.926.912 1.851 1.853 2.749 2.792a.326.326 0 0 1-.235.552zm-185.836-1.713a.325.325 0 0 1-.231-.555c.92-.929 1.862-1.852 2.8-2.742a.325.325 0 1 1 .448.472c-.932.886-1.869 1.8-2.785 2.728a.324.324 0 0 1-.227.097zm180.269-3.778a.321.321 0 0 1-.222-.087 124.881 124.881 0 0 0-2.9-2.612.326.326 0 1 1 .429-.49c.981.857 1.961 1.74 2.913 2.625a.325.325 0 0 1-.222.564zm-174.6-1.608a.326.326 0 0 1-.217-.569c.972-.871 1.968-1.735 2.958-2.569a.326.326 0 0 1 .42.5c-.985.829-1.976 1.689-2.943 2.555a.324.324 0 0 1-.221.083zm168.715-3.54a.325.325 0 0 1-.207-.075c-1-.824-2.028-1.643-3.05-2.433a.326.326 0 0 1 .4-.516c1.027.794 2.058 1.618 3.066 2.446a.326.326 0 0 1-.208.578zm-162.738-1.5a.326.326 0 0 1-.2-.581c1.025-.812 2.07-1.615 3.1-2.386a.326.326 0 1 1 .389.523 128.43 128.43 0 0 0-3.089 2.374.328.328 0 0 1-.199.074zm156.549-3.292a.325.325 0 0 1-.191-.062 127.974 127.974 0 0 0-3.193-2.247.326.326 0 0 1 .368-.539c1.071.73 2.151 1.49 3.208 2.259a.326.326 0 0 1-.192.589zm-150.285-1.374a.326.326 0 0 1-.187-.593c1.06-.741 2.151-1.479 3.241-2.193a.325.325 0 1 1 .357.544 132.884 132.884 0 0 0-3.225 2.184.329.329 0 0 1-.185.062zm143.817-3.034a.331.331 0 0 1-.175-.051 120.88 120.88 0 0 0-3.323-2.052.326.326 0 0 1 .334-.56c1.12.669 2.244 1.362 3.34 2.062a.326.326 0 0 1-.176.6zm-137.287-1.245a.326.326 0 0 1-.171-.6 134.527 134.527 0 0 1 3.366-1.993.326.326 0 1 1 .324.565c-1.12.641-2.247 1.309-3.349 1.985a.328.328 0 0 1-.169.047zm130.562-2.768a.326.326 0 0 1-.158-.041c-1.137-.632-2.3-1.254-3.443-1.847a.326.326 0 1 1 .3-.579c1.152.6 2.317 1.221 3.46 1.857a.325.325 0 0 1-.159.61zm-123.789-1.108a.326.326 0 0 1-.154-.613 130.233 130.233 0 0 1 3.478-1.787.326.326 0 1 1 .289.584 127.412 127.412 0 0 0-3.46 1.778.327.327 0 0 1-.152.042zm116.831-2.49a.334.334 0 0 1-.141-.032 128.602 128.602 0 0 0-3.55-1.636.326.326 0 1 1 .263-.6c1.189.526 2.39 1.079 3.569 1.644a.326.326 0 0 1-.141.62zm-109.841-.969a.326.326 0 0 1-.136-.623 130.661 130.661 0 0 1 3.578-1.572.326.326 0 1 1 .253.6c-1.18.5-2.378 1.023-3.56 1.564a.328.328 0 0 1-.134.035zm102.673-2.2a.315.315 0 0 1-.123-.025c-1.2-.487-2.425-.963-3.645-1.417a.326.326 0 0 1 .227-.611 129.9 129.9 0 0 1 3.664 1.425.326.326 0 0 1-.123.628zm-95.491-.826a.326.326 0 0 1-.118-.63c1.216-.47 2.454-.926 3.678-1.357a.326.326 0 0 1 .216.615c-1.218.428-2.449.882-3.659 1.35a.322.322 0 0 1-.116.023zm88.139-1.905a.32.32 0 0 1-.1-.017 129.97 129.97 0 0 0-3.727-1.193.326.326 0 0 1 .189-.624c1.247.379 2.508.782 3.746 1.2a.325.325 0 0 1-.1.634zm-80.764-.69a.326.326 0 0 1-.1-.637c1.237-.393 2.5-.774 3.753-1.131a.326.326 0 1 1 .179.626c-1.247.356-2.5.735-3.734 1.126a.311.311 0 0 1-.092.017zm73.27-1.585a.316.316 0 0 1-.086-.012 130.75 130.75 0 0 0-3.78-.961.326.326 0 0 1 .151-.634c1.263.3 2.541.625 3.8.966a.326.326 0 0 1-.085.641zm-65.75-.557a.326.326 0 0 1-.08-.642c1.259-.318 2.542-.621 3.815-.9a.326.326 0 0 1 .141.637 122.62 122.62 0 0 0-3.8.9.317.317 0 0 1-.075.006zm58.143-1.256a.3.3 0 0 1-.066-.007 132.02 132.02 0 0 0-3.831-.73.326.326 0 0 1-.265-.377.318.318 0 0 1 .378-.264c1.271.222 2.567.469 3.85.734a.325.325 0 0 1-.066.644zm-50.507-.426a.326.326 0 0 1-.06-.646 127.23 127.23 0 0 1 3.862-.669.326.326 0 0 1 .1.644c-1.289.2-2.582.427-3.843.665a.321.321 0 0 1-.058.007zm42.8-.922h-.046a138.973 138.973 0 0 0-3.869-.5.327.327 0 0 1-.287-.361.323.323 0 0 1 .361-.287c1.3.147 2.6.315 3.888.5a.326.326 0 0 1-.047.649zm-35.082-.295a.326.326 0 0 1-.041-.649c1.287-.163 2.6-.309 3.9-.435a.326.326 0 0 1 .063.65c-1.293.124-2.6.27-3.876.432a.285.285 0 0 1-.04.003zm27.313-.584h-.027c-1.285-.107-2.594-.2-3.891-.265a.325.325 0 0 1-.308-.342.335.335 0 0 1 .342-.309c1.3.07 2.62.159 3.911.266a.326.326 0 0 1-.027.651zm-19.53-.164a.326.326 0 0 1-.021-.651c1.308-.086 2.625-.154 3.914-.2a.335.335 0 0 1 .338.314.327.327 0 0 1-.314.338c-1.283.045-2.594.112-3.9.2zm11.722-.25h-.007q-1.52-.034-3.048-.035h-.852a.32.32 0 0 1-.329-.324.327.327 0 0 1 .324-.328h.857q1.536 0 3.063.035a.326.326 0 0 1-.008.652z" class="cls-2" data-name="Path 247"/>
        </g>
        <g id="Group_246" data-name="Group 246">
            <path id="Path_248" d="M893.9 1609.74a98.717 98.717 0 0 1-55.315 88.683q-4.215 2.063-8.637 3.728a94.427 94.427 0 0 1-5.071 1.754 99.306 99.306 0 0 1-55.537 1.121q-1.828-.489-3.631-1.056a98.719 98.719 0 1 1 128.191-94.23z" class="cls-3" data-name="Path 248"/>
        </g>
        <g id="Group_247" data-name="Group 247">
            <path id="Path_249" d="M1102.643 1499.1a98.661 98.661 0 0 1-96.009 98.669q-1.35.039-2.7.039a98.359 98.359 0 0 1-43.7-10.175 101.302 101.302 0 0 1-4.836-2.562 98.715 98.715 0 1 1 147.243-85.971z" class="cls-2" data-name="Path 249"/>
        </g>
        <g id="Group_248" data-name="Group 248">
            <path id="Path_250" d="M799.687 1590.91s7.619-.4 8.02-3.342-.936-9.624-.936-9.624l1.1-.249a1.1 1.1 0 0 0 .588-1.793c-1.132-1.291-2.62-3.145-2.62-3.973 0-1.337-.535-11.763-3.342-12.164s-30.075-2.272-24.862 17.778c0 0 5.346 10.159 5.48 14.436s1.07 12.832-5.213 18.179-18.179 8.154-18.981 16.708c0 0 12.164 10.426 25.4 1.6 0 0 18.588 4.634 21.529 3.3s7.731-14.531 7.731-14.531-13.487-12.96-13.888-18.574a35.353 35.353 0 0 1-.006-7.751z" class="cls-4" data-name="Path 250"/>
        </g>
        <g id="Group_249" data-name="Group 249">
            <path id="Path_251" d="M784.716 1578.813s-6.683-.2-4.946-4.411c0 0 .134-3.208 5.347-2.874s11.429.4 14.837-4.411 3.691-6.509 3.691-6.509a24.819 24.819 0 0 0 .593-6.93 7.982 7.982 0 0 0-2.02-4.873c-1.2-1.163-3.313-1.654-4.933-1.908a14.752 14.752 0 0 0-6.1.331 13.972 13.972 0 0 0-2.856 1.117c-.344.182-2.069 1.658-2.344 1.529 0 0-9.49-4.478-14.637 5.146s1.2 17.577 4.812 22.857c0 0 4.566 6.206 4.783 6.735s-.643-3.995 3.773-5.799z" class="cls-5" data-name="Path 251"/>
        </g>
        <g id="Group_250" data-name="Group 250">
            <path id="Path_252" d="M770.058 1558.114s-15.684-2.493-12.209-15.525 19.649-17.377 27.2-11.3 4.508 16.483 4.508 16.483l-2.693 3.93s-12.684-6.333-16.806 6.412z" class="cls-5" data-name="Path 252"/>
        </g>
        <g id="Group_251" data-name="Group 251">
            <path id="Path_253" d="M799.687 1590.91a62.3 62.3 0 0 1-7.151-.535s3.074 6.216 7.151 6.683c0 0-.134-5.146 0-6.148z" class="cls-6" data-name="Path 253"/>
        </g>
        <g id="Group_252" data-name="Group 252">
            <path id="Path_254" d="M802.358 1573.216c.136.71-.073 1.346-.466 1.422s-.822-.439-.958-1.149.073-1.346.466-1.421.822.439.958 1.148z" class="cls-5" data-name="Path 254"/>
        </g>
        <g id="Group_253" data-name="Group 253">
            <path id="Path_255" d="M807.927 1583.115s-3.079.084-4.167-1.185c0 0 .08 3.2 4 3.383z" class="cls-7" data-name="Path 255"/>
        </g>
        <g id="Group_254" data-name="Group 254">
            <path id="Path_256" d="M797.7 1572.271s1.852-3.06 3.654-3.257c0 0 .78.461.092.84s-3.559 1.91-3.746 2.417z" class="cls-5" data-name="Path 256"/>
        </g>
        <g id="Group_256" data-name="Group 256">
            <g id="Group_255" data-name="Group 255">
                <path id="Path_257" d="M829.943 1702.152l-2.979-46.874-.489-7.724 14.2-1.565s-.092 2.412-.248 6.414c-.391 9.8-1.16 29.137-1.851 46.02-3.144 1.501-6.087 2.805-8.633 3.729z" class="cls-4" data-name="Path 257"/>
            </g>
        </g>
        <g id="Group_258" data-name="Group 258">
            <g id="Group_257" data-name="Group 257">
                <path id="Path_258" d="M754.688 1686.794l11.012 17.176a97.982 97.982 0 0 1-17.958-7.646l-3.331-3.833a4.8 4.8 0 0 1-1.114-3.891l5.156-32.755 1.264-8.031c2.23-13.61 9.98-14.959 9.98-14.959l6.623 9.6-3.8 16.694-.124.554z" class="cls-4" data-name="Path 258"/>
            </g>
        </g>
        <g id="Group_260" data-name="Group 260">
            <g id="Group_259" data-name="Group 259">
                <path id="Path_259" d="M843.971 1651.126q-1.9.712-3.54 1.277c-9.934 3.416-12.991 2.986-13.467 2.875-.052-.013-.072-.02-.072-.02.209 15.9-.573 37.09-2.02 48.647a99.306 99.306 0 0 1-55.537 1.121c-2.457-11.681-4.113-38.693-3.637-46.228a10.976 10.976 0 0 1-3.175.352 19.06 19.06 0 0 1-6.5-1.324 36.238 36.238 0 0 0-7.568-1.981 19.364 19.364 0 0 0-3.233-.241c4.823-4.817 4.595-20.931 9.412-29.77s20.422-13.617 20.422-13.617h.007c19.542 10.528 34.169.568 34.169.568h.007c.352.1 10.129 3.018 11.746 3.761 6.12 2.809 11.127 7.352 14.627 17.443a102.159 102.159 0 0 0 8.359 17.137z" class="cls-2" data-name="Path 259"/>
            </g>
        </g>
        <g id="Group_261" data-name="Group 261">
            <path id="Path_260" d="M981.915 1448.424s-4.647 17.175 8.285 18.993l-1.213 14.549-9.9 2.626s19.8 21.418 43.442-1.616l-3.233-1.212-5.658-23.439s4.648-22.631-19.8-21.014c-.001 0-10.104 2.223-11.923 11.113z" class="cls-4" data-name="Path 260"/>
        </g>
        <g id="Group_262" data-name="Group 262">
            <path id="Path_261" d="M990.2 1467.417s5.354.893 9.5-1.978a15.577 15.577 0 0 1-9.972 8.444z" class="cls-6" data-name="Path 261"/>
        </g>
        <g id="Group_263" data-name="Group 263">
            <path id="Path_262" d="M1005.354 1446.1a3.26 3.26 0 0 1 4.445-1.111c2.844 1.532.606 6.971-3.233 6.567l-.1 6.466s3.839 1.717 7.173.3l2.609-14.237a13.647 13.647 0 0 0-11.62-16.088q-.435-.051-.889-.085c-12.124-.909-14.852 4.648-14.852 4.648s-13.538-2.021-13.942 6.566 6.971 9.295 6.971 9.295a17.491 17.491 0 0 0 9.9-5.075c4.344-4.52 13.134-2.297 13.538 2.754z" class="cls-5" data-name="Path 262"/>
        </g>
        <g id="Group_264" data-name="Group 264">
            <path id="Path_263" d="M1068.8 1535.508a13.2 13.2 0 0 1-2.1 1.694c-.326.222-.665.437-1.023.633-.2.117-.405.228-.613.345a.391.391 0 0 1-.091.046c-6.291 3.285-14.96 3.95-14.96 3.95l.006.195 1.4 43.067.41 12.509h-45.935c.118-.058.235-.117.359-.182q-1.35.039-2.7.039a98.359 98.359 0 0 1-43.7-10.175l-.658-10.6-2.034-32.631-19.347-8.2-2.574-1.1c2.594-12.841 8.93-24.307 14.275-32.194a38.372 38.372 0 0 1 19.255-14.744l10.319-3.573s0 .007.006.007a19.625 19.625 0 0 0 6.349 4.908l.072.039a33.152 33.152 0 0 0 15.292 4.081c.091 0 .176 0 .267-.007h.039a14.363 14.363 0 0 0 1.65-.143c8.878-1.232 19.007-9.849 19.724-10.462l.039-.039 17.554 6.655a39.136 39.136 0 0 1 24.131 27.247z" class="cls-5" data-name="Path 263"/>
        </g>
        <g id="Group_265" data-name="Group 265">
            <path id="Path_264" d="M959.2 1577.03a35.534 35.534 0 0 1-4.179 8.037 99.027 99.027 0 0 1-21.008-15.918c.8-12.7 3.806-32.95 3.806-32.95l19.347 8.2z" class="cls-4" data-name="Path 264"/>
        </g>
        <g id="Group_266" data-name="Group 266">
            <ellipse id="Ellipse_15" cx=".93" cy="1.116" class="cls-5" data-name="Ellipse 15" rx=".93" ry="1.116" transform="translate(984.251 1450.953)"/>
        </g>
        <g id="Group_267" data-name="Group 267">
            <path id="Path_265" d="M993.086 1452.07a.946.946 0 1 1-.93-1.117 1.036 1.036 0 0 1 .93 1.117z" class="cls-5" data-name="Path 265"/>
        </g>
        <g id="Group_268" data-name="Group 268">
            <path id="Path_266" d="M988.592 1458.442h-3.009l2.718-5.4.582.293-2.243 4.459h1.952z" class="cls-2" data-name="Path 266"/>
        </g>
        <g id="Group_269" data-name="Group 269">
            <path id="Path_267" d="M986.111 1461.062h6.975a3.877 3.877 0 0 1-3.487 2.325 3.756 3.756 0 0 1-3.488-2.325z" class="cls-7" data-name="Path 267"/>
        </g>
        <g id="Group_270" data-name="Group 270">
            <path id="Path_268" d="M983.437 1450.186a.326.326 0 0 1-.207-.578 3.829 3.829 0 0 1 3.2-.683.326.326 0 0 1-.166.63 3.206 3.206 0 0 0-2.618.557.324.324 0 0 1-.209.074z" class="cls-5" data-name="Path 268"/>
        </g>
        <g id="Group_271" data-name="Group 271">
            <path id="Path_269" d="M993.785 1450.185a.323.323 0 0 1-.2-.072 3.229 3.229 0 0 0-2.619-.558.326.326 0 1 1-.165-.63 3.834 3.834 0 0 1 3.2.683.325.325 0 0 1-.207.577z" class="cls-5" data-name="Path 269"/>
        </g>
        <g id="Group_272" data-name="Group 272">
            <path id="Path_270" d="M1073.925 1568.321a274.272 274.272 0 0 0-7.229-31.119c-.326.222-.665.437-1.023.633-.2.123-.405.234-.613.345a.391.391 0 0 1-.091.046c-.2.1-.4.208-.6.3s-.4.195-.606.286c-.4.189-.822.365-1.245.528a55.737 55.737 0 0 1-12.5 3.031 88.041 88.041 0 0 1-9.1.815c.339 5.86 8.552 39.267 8.552 39.267-7.131.072-31.106 9.315-43.217 15.312-.124.065-.241.124-.359.182-11.987 6-14.275 17.984-14.614 21.348-.254 2.516.47 8.167.854 10.886a1.752 1.752 0 0 0 3.487-.248l.144 1.968a1.442 1.442 0 0 0 2.881-.1l.1 1.226a1.616 1.616 0 0 0 3.227-.131v-.052l-.111-3.566.013.118a1.273 1.273 0 0 0 2.542-.118v-.071l-.886-14.686 4.445-3.839c4.9-3.527 40.551-9.83 57.532-12.679a12.132 12.132 0 0 0 10.129-12.026 116.561 116.561 0 0 0-1.712-17.656z" class="cls-4" data-name="Path 270"/>
        </g>
        <g id="Group_273" data-name="Group 273">
            <path id="Path_271" d="M995.614 1630.134a.325.325 0 0 1-.325-.305l-.317-4.948a.327.327 0 0 1 .3-.347.317.317 0 0 1 .346.3l.318 4.948a.327.327 0 0 1-.3.347z" class="cls-8" data-name="Path 271"/>
        </g>
        <g id="Group_274" data-name="Group 274">
            <path id="Path_272" d="M998.586 1631.388a.325.325 0 0 1-.325-.307l-.537-8.76a.326.326 0 0 1 .3-.345.32.32 0 0 1 .345.306l.537 8.76a.325.325 0 0 1-.3.345z" class="cls-8" data-name="Path 272"/>
        </g>
        <g id="Group_275" data-name="Group 275">
            <path id="Path_273" d="M1001.812 1628.973a.325.325 0 0 1-.324-.3l-.508-6.114a.326.326 0 0 1 .65-.053l.507 6.113a.326.326 0 0 1-.3.352z" class="cls-8" data-name="Path 273"/>
        </g>
        <g id="Group_276" data-name="Group 276">
            <path id="Path_274" d="M886.029 1451.413h-72.914a14.414 14.414 0 0 0-14.315 14.507v6.993a14.415 14.415 0 0 0 14.319 14.508h53.032l7.357 10.734 7.357-10.734h5.168a14.415 14.415 0 0 0 14.319-14.508v-6.993a14.414 14.414 0 0 0-14.323-14.507z" class="cls-2" data-name="Path 274"/>
        </g>
        <g id="Group_281" data-name="Group 281">
            <g id="Group_277" data-name="Group 277">
                <path id="Path_275" d="M850.3 1461.4h-39.215a.652.652 0 1 1 0-1.3H850.3a.652.652 0 0 1 0 1.3z" class="cls-7" data-name="Path 275"/>
            </g>
            <g id="Group_278" data-name="Group 278">
                <path id="Path_276" d="M862.609 1466.562H823.4a.652.652 0 1 1 0-1.3h39.212a.652.652 0 1 1 0 1.3z" class="cls-7" data-name="Path 276"/>
            </g>
            <g id="Group_279" data-name="Group 279">
                <path id="Path_277" d="M850.3 1471.724h-39.215a.652.652 0 1 1 0-1.3H850.3a.652.652 0 0 1 0 1.3z" class="cls-7" data-name="Path 277"/>
            </g>
            <g id="Group_280" data-name="Group 280">
                <path id="Path_278" d="M876.522 1476.886H837.31a.652.652 0 1 1 0-1.3h39.212a.652.652 0 1 1 0 1.3z" class="cls-7" data-name="Path 278"/>
            </g>
        </g>
        <g id="Group_283" data-name="Group 283">
            <g id="Group_282" data-name="Group 282">
                <path id="Path_279" d="M913.576 1680.814l-23.12.487a11.008 11.008 0 0 0-10.774 11.238l.112 5.305a11.007 11.007 0 0 0 11.238 10.773l12.016-.253 5.826 8.024 5.483-8.262h-.206a11.008 11.008 0 0 0 10.774-11.237l-.112-5.3a11.008 11.008 0 0 0-11.237-10.775z" class="cls-2" data-name="Path 279"/>
            </g>
        </g>
        <g id="Group_288" data-name="Group 288">
            <g id="Group_287" data-name="Group 287">
                <g id="Group_286" data-name="Group 286">
                    <g id="Group_285" data-name="Group 285">
                        <g id="Group_284" data-name="Group 284">
                            <path id="Path_280" d="M893.393 1696.378a6.65 6.65 0 0 1 1.92-8.726 5.477 5.477 0 0 1 2.894-.924 5.7 5.7 0 0 1 4.627 2.251 5.7 5.7 0 0 1 4.505-2.486 5.473 5.473 0 0 1 2.937.775 6.65 6.65 0 0 1 2.366 8.616c-1.255 2.51-6.711 6.952-8.683 8.508a1.212 1.212 0 0 1-1.457.037c-2.05-1.452-7.727-5.608-9.109-8.051z" class="cls-7" data-name="Path 280"/>
                        </g>
                    </g>
                </g>
            </g>
        </g>
        <g id="Group_289" data-name="Group 289">
            <path id="Path_281" d="M1014.978 1653.743h-72.914a14.414 14.414 0 0 0-14.319 14.508v6.992a14.414 14.414 0 0 0 14.319 14.508H995.1l7.357 10.734 7.357-10.734h5.168a14.414 14.414 0 0 0 14.319-14.508v-6.992a14.414 14.414 0 0 0-14.323-14.508z" class="cls-3" data-name="Path 281"/>
        </g>
        <g id="Group_294" data-name="Group 294">
            <g id="Group_290" data-name="Group 290">
                <path id="Path_282" d="M988.757 1664.67h-39.212a.652.652 0 0 1 0-1.3h39.212a.652.652 0 0 1 0 1.3z" class="cls-7" data-name="Path 282"/>
            </g>
            <g id="Group_291" data-name="Group 291">
                <path id="Path_283" d="M1001.069 1669.832h-39.212a.652.652 0 0 1 0-1.3h39.212a.652.652 0 1 1 0 1.3z" class="cls-7" data-name="Path 283"/>
            </g>
            <g id="Group_292" data-name="Group 292">
                <path id="Path_284" d="M988.757 1674.995h-39.212a.652.652 0 0 1 0-1.3h39.212a.652.652 0 0 1 0 1.3z" class="cls-7" data-name="Path 284"/>
            </g>
            <g id="Group_293" data-name="Group 293">
                <path id="Path_285" d="M1014.982 1680.156H975.77a.651.651 0 1 1 0-1.3h39.212a.651.651 0 1 1 0 1.3z" class="cls-7" data-name="Path 285"/>
            </g>
        </g>
    </g>
</svg>
