<?xml version="1.0" encoding="utf-8"?>
<!-- Generator: Adobe Illustrator 19.2.1, SVG Export Plug-In . SVG Version: 6.00 Build 0)  -->
<svg version="1.1" id="Layer_1" xmlns="http://www.w3.org/2000/svg" xmlns:xlink="http://www.w3.org/1999/xlink" x="0px" y="0px"
	 viewBox="0 0 300 300" style="enable-background:new 0 0 300 300;" xml:space="preserve">
<style type="text/css">
	.st0{fill:#1D53A0;}
</style>
<path class="st0" d="M280.8,150c0-12.9,4.7-23.9,14-33.1c1.6-1.6,3.4-3.1,5.2-4.4c-6.6-25.7-20.2-48.8-40.7-68.8
	c-0.4-0.4-1-0.8-1.4-1.3c-5.5,2.1-11.5,3.2-18.1,3.2c-13.3,0-24.6-4.5-34-13.7c-7.8-7.6-12.3-16.5-13.6-26.8
	C178.9,1.7,164.9,0,150.1,0S121.3,1.7,108,5.2c-1.2,10.3-5.8,19.2-13.7,26.8c-9.3,9.1-20.6,13.7-33.9,13.7c-6.6,0-12.6-1.1-18.2-3.3
	c-0.5,0.5-1,0.9-1.5,1.3C20,63.9,6.4,86.8,0,112.7c1.8,1.3,3.4,2.7,5.1,4.3c9.3,9.1,14,20.1,14,33.1c0,12.9-4.7,23.9-14,32.9
	c-1.6,1.6-3.3,3.1-5.1,4.4C6.4,213.1,20,236,40.6,256c0.5,0.5,1.1,1.1,1.5,1.5c5.6-2.1,11.7-3.3,18.2-3.3c13.3,0,24.6,4.5,33.9,13.6
	c8,7.7,12.5,16.7,13.7,27.1c13.3,3.5,27.3,5.2,42,5.2c14.7,0,28.8-1.7,42-5.2c1.2-10.4,5.8-19.3,13.6-27.1
	c9.3-9.1,20.7-13.6,34-13.6c6.4,0,12.5,1.1,18.1,3.2c0.5-0.5,1-0.9,1.5-1.5c20.7-20,34.3-42.9,40.7-68.7c-1.8-1.3-3.6-2.8-5.2-4.4
	C285.5,173.9,280.8,162.9,280.8,150z M103.6,209.3c-4.8,8-11.7,13.1-20.6,15.3c-9.1,2.4-17.7,1.3-25.8-3.2
	c-8.1-4.5-13.4-11.3-15.8-20.1c-2.5-8.8-1.4-17.1,3.4-25.1c4.7-7.9,11.5-13.1,20.6-15.5c9.1-2.4,17.7-1.2,25.8,3.3
	c8.1,4.7,13.4,11.3,15.8,20C109.3,193.1,108.2,201.3,103.6,209.3z M103.7,124.1c-4.8,8-11.7,13.1-20.6,15.3
	c-9.1,2.4-17.7,1.3-25.8-3.2c-8.1-4.5-13.4-11.3-15.8-20.1c-2.5-8.8-1.4-17.1,3.4-25.1c4.7-7.9,11.5-13.1,20.6-15.3
	c9.1-2.4,17.6-1.3,25.8,3.3c8.2,4.7,13.4,11.3,15.8,20C109.6,107.9,108.4,116.3,103.7,124.1z M179.4,251.9
	c-4.7,7.9-11.7,13.1-20.6,15.3c-9.1,2.4-17.7,1.3-25.8-3.3c-8.1-4.5-13.4-11.3-15.8-20.1c-2.5-8.8-1.4-17.1,3.4-25.1
	c4.7-7.9,11.5-13.1,20.6-15.3c9.1-2.4,17.7-1.2,25.8,3.3c8.2,4.5,13.4,11.2,15.8,20C185.3,235.6,184.2,244,179.4,251.9z M123.3,150
	c0-7.2,2.6-13.3,7.8-18.4c5.2-5.1,11.5-7.6,18.9-7.6s13.7,2.5,18.9,7.6c5.2,5.1,7.8,11.2,7.8,18.4c0,7.2-2.6,13.3-7.8,18.4
	c-5.2,5.1-11.5,7.6-18.9,7.6s-13.7-2.5-18.9-7.6C125.9,163.3,123.3,157.2,123.3,150z M179.4,81.3c-4.7,8-11.7,13.1-20.6,15.3
	c-9.1,2.4-17.7,1.3-25.8-3.2c-8.1-4.5-13.4-11.3-15.8-20.1c-2.5-8.8-1.4-17.1,3.4-25.1c4.7-7.9,11.5-13.1,20.6-15.5
	c9.1-2.4,17.7-1.2,25.8,3.3c8.2,4.7,13.4,11.3,15.8,20C185.3,65.1,184.2,73.3,179.4,81.3z M255.3,209.2c-4.8,8-11.7,13.1-20.6,15.3
	c-9.1,2.4-17.7,1.3-25.8-3.2c-8.1-4.5-13.4-11.3-15.8-20.1c-2.5-8.8-1.4-17.1,3.4-25.1c4.7-7.9,11.5-13.1,20.6-15.3
	c9.1-2.4,17.7-1.2,25.8,3.3c8.1,4.7,13.4,11.3,15.8,20C261,192.8,259.9,201.2,255.3,209.2z M255.6,124c-4.8,8-11.7,13.1-20.6,15.3
	c-9.1,2.4-17.7,1.3-25.8-3.2c-8.1-4.5-13.4-11.3-15.8-20.1c-2.5-8.8-1.4-17.1,3.4-25.1c4.7-7.9,11.5-13.1,20.6-15.3
	c9.1-2.4,17.7-1.2,25.8,3.3c8.1,4.7,13.4,11.3,15.8,20C261.3,107.7,260.2,116.1,255.6,124z"/>
</svg>
