<?xml version="1.0" encoding="utf-8"?>
<!-- Generator: Adobe Illustrator 19.2.1, SVG Export Plug-In . SVG Version: 6.00 Build 0)  -->
<svg version="1.1" id="Layer_1" xmlns="http://www.w3.org/2000/svg" xmlns:xlink="http://www.w3.org/1999/xlink" x="0px" y="0px"
	 viewBox="0 0 320 220" style="enable-background:new 0 0 320 220;" xml:space="preserve">
<style type="text/css">
	.st0{fill:#FFFFFF;}
</style>
<path class="st0" d="M48.9,178.1c1.6-0.3,4.4-0.6,7.2-0.6c3.6,0,5.9,0.4,7.7,1.7c1.7,1,2.8,2.8,2.8,5c0,2.5-1.6,4.8-4.5,5.8v0.1
	c2.8,0.7,5.4,3,5.4,6.7c0,2.4-1,4.3-2.6,5.6c-1.9,1.7-5.1,2.5-10,2.5c-2.7,0-4.8-0.2-6-0.4L48.9,178.1L48.9,178.1z M53.8,188.7h2.5
	c3.4,0,5.3-1.6,5.3-3.9c0-2.5-1.9-3.7-5-3.7c-1.4,0-2.3,0.1-2.8,0.2V188.7z M53.8,201.1c0.6,0.1,1.5,0.1,2.6,0.1c3.2,0,6-1.2,6-4.5
	c0-3.1-2.7-4.4-6.1-4.4h-2.4L53.8,201.1L53.8,201.1z"/>
<path class="st0" d="M76.4,185.2v7c0,3.1-0.1,5.2-0.3,7.9h0.1c1-2.3,1.6-3.7,2.6-5.8l4.8-9.1h6v19.5H85v-7c0-3.1,0.1-4.6,0.3-8.2
	h-0.2c-1,2.3-1.6,3.7-2.6,5.6c-1.5,2.9-3.3,6.4-5,9.6h-5.9v-19.5L76.4,185.2L76.4,185.2z"/>
<path class="st0" d="M111.6,185.2v15.9l2.1,0.1l-0.2,9.7h-3.8l-0.2-6.2H96.8l-0.2,6.2h-3.8l-0.2-9.7l1.8-0.1c0.8-1.2,1.5-2.6,1.9-4
	c0.7-2.2,1-4.6,1-7v-4.9L111.6,185.2L111.6,185.2z M101.6,191.5c0,2.1-0.3,4.2-0.8,6c-0.3,1.2-0.8,2.4-1.4,3.5h7.6v-12.2h-5.3
	L101.6,191.5L101.6,191.5z"/>
<path class="st0" d="M120.7,196.3c0.1,3.5,2.9,5,6,5c2.3,0,3.9-0.3,5.4-0.9l0.7,3.4c-1.7,0.7-4,1.2-6.8,1.2c-6.3,0-10-3.9-10-9.8
	c0-5.4,3.3-10.5,9.5-10.5c6.3,0,8.4,5.2,8.4,9.5c0,0.9-0.1,1.6-0.2,2.1L120.7,196.3L120.7,196.3z M129.3,192.9c0-1.8-0.8-4.8-4-4.8
	c-3,0-4.3,2.8-4.5,4.8H129.3z"/>
<path class="st0" d="M156.4,194.7c0,7.2-5,10.4-10,10.4c-5.5,0-9.8-3.8-9.8-10c0-6.4,4.2-10.3,10.1-10.3
	C152.5,184.7,156.4,188.8,156.4,194.7z M141.7,194.9c0,3.8,1.8,6.6,4.8,6.6c2.8,0,4.8-2.8,4.8-6.7c0-3-1.4-6.5-4.7-6.5
	C143.1,188.3,141.7,191.7,141.7,194.9z"/>
<path class="st0" d="M164.8,185.2v6.1c0,2.3,0.8,3.7,3.4,3.7c1.2,0,2.5-0.5,3.3-1.1v-8.7h4.9v19.5h-4.9v-7.5h-0.1
	c-1.2,0.8-3.2,1.3-5.1,1.3c-4,0-6.5-2.2-6.5-6.7v-6.6L164.8,185.2L164.8,185.2z"/>
<path class="st0" d="M192.6,204.7l-0.3-2.2h-0.1c-1.2,1.5-3.2,2.6-5.8,2.6c-3.9,0-6.1-2.8-6.1-5.8c0-4.9,4.4-7.4,11.6-7.4v-0.3
	c0-1.3-0.5-3.4-4-3.4c-1.9,0-3.9,0.6-5.2,1.4l-1-3.2c1.4-0.9,4-1.7,7-1.7c6.2,0,8,4,8,8.2v7c0,1.8,0.1,3.5,0.3,4.7L192.6,204.7
	L192.6,204.7z M192,195.1c-3.5-0.1-6.8,0.7-6.8,3.6c0,1.9,1.2,2.8,2.8,2.8c2,0,3.4-1.3,3.8-2.7c0.1-0.4,0.2-0.8,0.2-1.1L192,195.1
	L192,195.1z"/>
<path class="st0" d="M216,185.2v3.8h-5.8v15.7h-4.9V189h-5.8v-3.8H216z"/>
<path class="st0" d="M227.5,178.1c1.8-0.3,4.6-0.6,7.4-0.6c3.9,0,6.5,0.6,8.3,2.2c1.5,1.2,2.3,3.1,2.3,5.4c0,3.5-2.4,5.8-4.9,6.8
	v0.1c1.9,0.7,3.1,2.6,3.8,5.2c0.8,3.4,1.6,6.5,2.1,7.5h-5.1c-0.4-0.8-1-3-1.8-6.4c-0.8-3.5-2-4.6-4.8-4.7h-2.5v11.1h-4.9
	L227.5,178.1L227.5,178.1z M232.4,190h2.9c3.3,0,5.4-1.8,5.4-4.4c0-3-2.1-4.3-5.3-4.3c-1.6,0-2.6,0.1-3,0.2L232.4,190L232.4,190z"/>
<path class="st0" d="M255,177.7v15.7c0,5.3,2.2,7.7,5.5,7.7c3.6,0,5.7-2.4,5.7-7.7v-15.7h4.9v15.4c0,8.3-4.3,12-10.8,12
	c-6.2,0-10.3-3.5-10.3-12v-15.4L255,177.7L255,177.7z"/>
<path class="st0" d="M223.3,81.3c0-6.6,2.3-12.1,6.9-16.8c0.8-0.8,1.7-1.6,2.6-2.2c-3.2-13-9.9-24.7-20.1-34.9
	c-0.2-0.2-0.5-0.4-0.7-0.7c-2.7,1.1-5.7,1.6-8.9,1.6c-6.6,0-12.1-2.3-16.8-7c-3.9-3.9-6.1-8.4-6.7-13.6c-6.6-1.7-13.4-2.6-20.7-2.6
	c-7.3,0-14.2,0.9-20.7,2.6c-0.6,5.2-2.8,9.7-6.8,13.6c-4.6,4.6-10.1,7-16.7,7c-3.2,0-6.2-0.5-9-1.7c-0.3,0.3-0.5,0.5-0.7,0.7
	C94.9,37.7,88.2,49.3,85,62.4c0.9,0.7,1.7,1.4,2.5,2.2c4.6,4.6,6.9,10.2,6.9,16.8c0,6.6-2.3,12.1-6.9,16.7c-0.8,0.8-1.6,1.6-2.5,2.2
	c3.2,13,9.9,24.7,20,34.8c0.3,0.3,0.5,0.5,0.7,0.7c2.8-1.1,5.7-1.7,9-1.7c6.6,0,12.1,2.3,16.7,6.9c3.9,3.9,6.1,8.4,6.8,13.7
	c6.6,1.8,13.4,2.6,20.7,2.6c7.2,0,14.2-0.9,20.7-2.6c0.6-5.3,2.8-9.8,6.7-13.7c4.6-4.6,10.2-6.9,16.8-6.9c3.2,0,6.1,0.5,8.9,1.6
	c0.3-0.3,0.5-0.5,0.7-0.7c10.2-10.1,16.9-21.8,20.1-34.8c-0.9-0.7-1.8-1.4-2.6-2.2C225.6,93.4,223.3,87.9,223.3,81.3z M136,111.4
	c-2.4,4.1-5.7,6.6-10.1,7.8c-4.5,1.2-8.7,0.7-12.7-1.6c-4-2.3-6.6-5.7-7.8-10.2c-1.2-4.5-0.7-8.6,1.7-12.7c2.3-4,5.7-6.6,10.1-7.8
	s8.7-0.6,12.7,1.7c4,2.4,6.6,5.7,7.8,10.1C138.8,103.2,138.3,107.3,136,111.4z M136.1,68.2c-2.4,4.1-5.7,6.6-10.1,7.8
	c-4.5,1.2-8.7,0.7-12.7-1.6s-6.6-5.7-7.8-10.2c-1.2-4.5-0.7-8.6,1.7-12.7c2.3-4,5.7-6.6,10.1-7.8c4.5-1.2,8.6-0.7,12.7,1.7
	c4.1,2.4,6.6,5.7,7.8,10.1C139,60,138.4,64.2,136.1,68.2z M173.4,133c-2.3,4-5.7,6.6-10.1,7.8c-4.5,1.2-8.7,0.7-12.7-1.7
	c-4-2.3-6.6-5.7-7.8-10.2c-1.2-4.5-0.7-8.6,1.7-12.7c2.3-4,5.7-6.6,10.1-7.8c4.5-1.2,8.7-0.6,12.7,1.7c4.1,2.3,6.6,5.7,7.8,10.1
	C176.3,124.7,175.7,129,173.4,133z M145.7,81.3c0-3.6,1.3-6.8,3.9-9.3c2.6-2.6,5.7-3.9,9.3-3.9s6.8,1.3,9.3,3.9
	c2.6,2.6,3.9,5.7,3.9,9.3c0,3.6-1.3,6.8-3.9,9.3c-2.6,2.6-5.7,3.9-9.3,3.9c-3.6,0-6.8-1.3-9.3-3.9C147,88.1,145.7,85,145.7,81.3z
	 M173.4,46.5c-2.3,4.1-5.7,6.6-10.1,7.8c-4.5,1.2-8.7,0.7-12.7-1.6c-4-2.3-6.6-5.7-7.8-10.2c-1.2-4.5-0.7-8.6,1.7-12.7
	c2.3-4,5.7-6.6,10.1-7.8c4.5-1.2,8.7-0.6,12.7,1.7c4.1,2.4,6.6,5.7,7.8,10.1C176.3,38.3,175.7,42.5,173.4,46.5z M210.7,111.3
	c-2.4,4.1-5.7,6.6-10.1,7.8c-4.5,1.2-8.7,0.7-12.7-1.6s-6.6-5.7-7.8-10.2c-1.2-4.5-0.7-8.6,1.7-12.7c2.3-4,5.7-6.6,10.1-7.8
	c4.5-1.2,8.7-0.6,12.7,1.7c4,2.4,6.6,5.7,7.8,10.1C213.5,103,213,107.3,210.7,111.3z M210.8,68.2c-2.4,4.1-5.7,6.6-10.1,7.8
	c-4.5,1.2-8.7,0.7-12.7-1.6c-4-2.3-6.6-5.7-7.8-10.2c-1.2-4.5-0.7-8.6,1.7-12.7c2.3-4,5.7-6.6,10.1-7.8c4.5-1.2,8.7-0.6,12.7,1.7
	c4,2.4,6.6,5.7,7.8,10.1C213.7,59.9,213.1,64.2,210.8,68.2z"/>
</svg>
